# xmcd
#
# Track frame offsets:
#	150
#	16512
#	35647
#	53722
#	74455
#	89225
#	111597
#	123442
#	140895
#	153997
#	171217
#	200532
#	212687
#	229935
#	254447
#	270297
#
# Disc length: 3705 seconds
#
# Revision: 6
# Processed by: cddbd v1.5.2PL0 Copyright (c) Steve Scherf et al.
# Submitted via: EasyCDDAExtractor 11.1.0.1
#
DISCID=ee0e7710
DTITLE=Hound Dog Taylor And The Houserockers - Deluxe Edition
DYEAR=1999
DGENRE=Blues
TTITLE0=Wild About You, Baby
TTITLE1=The Sun Is Shining (live)
TTITLE2=Roll Your Moneymaker
TTITLE3=Give Me Back My Wig (live)
TTITLE4=Walkin The Ceiling
TTITLE5=See Me In The Evening
TTITLE6=Phillips Goes Bananas
TTITLE7=It Hurts Me Too
TTITLE8=What'd I Say?
TTITLE9=Rock Me (live)
TTITLE10=Phillips' Theme (live)
TTITLE11=Take Five
TTITLE12=She's Gone
TTITLE13=Ain't It Lonesome? (live)
TTITLE14=Ain't Got Nobody
TTITLE15=Talking To Audience
EXTD=YEAR: 1999
EXTT0=
EXTT1=
EXTT2=
EXTT3=
EXTT4=
EXTT5=
EXTT6=
EXTT7=
EXTT8=
EXTT9=
EXTT10=
EXTT11=
EXTT12=
EXTT13=
EXTT14=
EXTT15=
PLAYORDER=
